<svg id="Layer_1" data-name="Layer 1" xmlns="http://www.w3.org/2000/svg" viewBox="0 0 1229.28 372.86"><defs><style>.cls-1{fill:#fff;}</style></defs><path class="cls-1" d="M411.62,124.9h19.5L471.7,227.67,512.1,124.9h19.5v123H517v-98l-38.82,98H465l-38.82-98v98H411.62Z"/><path class="cls-1" d="M627.87,190.78v57.1h-14V232.59c-4.75,10.19-16.52,16.69-30.22,16.69-18.62,0-30.74-10.54-30.74-26.7,0-16.87,13.87-27.58,35.31-27.58h20c3.87,0,5.63-1.93,5.63-4.74,0-12.13-8.61-20.38-23.72-20.38-13,0-23.19,8.08-23.89,17.74H552.86c1.58-17,17.74-29.69,37.59-29.69C613.46,157.93,627.87,171.11,627.87,190.78Zm-14,17.22v-2.29H589.05c-13.18,0-21.79,6.33-21.79,16.69,0,9.14,7.2,14.94,18.45,14.94C603.45,237.34,613.82,226.27,613.82,208Z"/><path class="cls-1" d="M685.66,171.81c-17.92,0-23,16.16-23,37.07v39h-14V159.34h14v17.92c3.69-12.13,11.07-17.92,24.07-17.92H698v12.47Z"/><path class="cls-1" d="M739.42,203.61l-11.6,10.54v33.73H713.59V123h14.23v73.79l41.64-37.42h18.62l-38,34.6,41.46,53.94H773.85Z"/><path class="cls-1" d="M880.31,219.42c-3,18.09-18.62,29.86-40.58,29.86-26.18,0-43.75-20.9-43.75-46.2,0-26,16.17-45.15,42.17-45.15,25.82,0,41.28,17.92,41.28,41.46a60,60,0,0,1-.35,6.15H809.86c1.06,18.27,13.18,31.27,29.87,31.27,14.4,0,23.54-6.32,26.35-17.39ZM810.56,194.3H865c-1-14.94-11.06-24.42-26.87-24.42C823.21,169.88,813.2,178.66,810.56,194.3Z"/><path class="cls-1" d="M921.06,131.05v28.29h27.23v12.47H921.06v47.61c0,9.83,5.62,15.63,14.23,15.63h13v12.83H934.76c-16.86,0-27.75-10.54-27.75-27.76V171.81H888.56V159.34H907V131.05Z"/><path class="cls-1" d="M1040.34,219.42c-3,18.09-18.62,29.86-40.58,29.86-26.17,0-43.74-20.9-43.74-46.2,0-26,16.16-45.15,42.16-45.15,25.83,0,41.29,17.92,41.29,41.46a57,57,0,0,1-.36,6.15H969.9c1.05,18.27,13.17,31.27,29.86,31.27,14.41,0,23.54-6.32,26.35-17.39ZM970.6,194.3h54.46c-1-14.94-11.07-24.42-26.88-24.42C983.25,169.88,973.24,178.66,970.6,194.3Z"/><path class="cls-1" d="M1095.5,171.81c-17.92,0-23,16.16-23,37.07v39h-14.06V159.34h14.06v17.92c3.69-12.13,11.07-17.92,24.07-17.92h11.24v12.47Z"/><rect class="cls-1" x="163.1" y="137.57" width="4.59" height="97.81" transform="translate(109.49 -56.43) rotate(28.61)"/><rect class="cls-1" x="256.96" y="137.57" width="4.59" height="97.81" transform="translate(120.95 -101.37) rotate(28.61)"/><rect class="cls-1" x="210.07" y="137.71" width="4.59" height="97.67" transform="translate(488.14 248.62) rotate(151.39)"/><rect class="cls-1" x="303.8" y="137.71" width="4.59" height="97.67" transform="translate(664.15 203.74) rotate(151.39)"/><circle class="cls-1" cx="188.89" cy="143.6" r="20.49"/><circle class="cls-1" cx="282.73" cy="143.6" r="20.49"/><circle class="cls-1" cx="329.64" cy="229.39" r="20.49"/><circle class="cls-1" cx="235.81" cy="229.4" r="20.49"/><circle class="cls-1" cx="141.97" cy="229.4" r="20.49"/></svg>